<svg 
  viewBox="0 0 247.66 251.02" 
  fill="#8b5cf6"
  xmlns="http://www.w3.org/2000/svg"
>
  <path d="M46.14,114.39c5.91-.04,11.75-1.4,17.02-4.08,6.19-3.14,13.98-8.49,20.15-17.22,6.02-8.53,9.08-18.8,9.19-29.24l.51-48.53C48.09,26.99,14.48,66.67,11.92,114.6l34.22-.21Z"/>
  <path d="M106.72,64.46c0,6.99,1.55,13.89,4.51,20.22,5.83,12.47,17.48,30.65,35.82,30.65,16.55,0,56.59.07,90.29.14-3.28-57.88-51.25-103.81-109.95-103.81-7.08,0-14,.68-20.71,1.95l.04,50.86Z"/>
  <path d="M157.69,133.5c-13.71.04-27.13,4.7-37.51,13.66-7.45,6.43-13.78,15.38-14.22,27.35l-.22,62.91c6.61,1.27,13.43,1.94,20.41,1.94,58.93,0,106.79-47.34,107.67-106.06l-76.14.19Z"/>
  <path d="M93.01,183.89c-.04-13.21-4.4-26.15-12.82-36.34-.39-.47-.79-.94-1.19-1.4-8.23-9.31-20.21-14.43-32.64-14.5l-34.91-.21c.79,50.12,35.24,92.07,81.73,104.23l-.17-51.78Z"/>
</svg>

